<svg width="200" height="200" viewBox="0 0 200 200" fill="none" xmlns="http://www.w3.org/2000/svg">
<circle cx="100" cy="100" r="100" fill="#DDDDDD"/>
<g clip-path="url(#clip0_16_58)">
<path d="M160 49.2125L149.068 171.407L99.9265 185L50.9207 171.426L40 49.2125H160Z" fill="#264DE4"/>
<path d="M139.708 163.626L149.051 59.2053H100V174.61L139.708 163.626Z" fill="#2965F1"/>
<path d="M65.0356 104.533L66.382 119.521H100V104.533H65.0356Z" fill="#EBEBEB"/>
<path d="M100 74.1944H99.9481H62.3301L63.6957 89.1836H100V74.1944Z" fill="#EBEBEB"/>
<path d="M100 159.056V143.461L99.9342 143.478L83.2032 138.971L82.1337 127.016H74.0038H67.0532L69.1579 150.551L99.9309 159.075L100 159.056Z" fill="#EBEBEB"/>
<path d="M68.2412 16H86.4363V23.5918H75.8501V31.1836H86.4363V38.7754H68.2412V16Z" fill="black"/>
<path d="M90.0754 16H108.271V22.6016H97.6843V23.9219H108.271V39.1055H90.0754V32.1738H100.662V30.8535H90.0754V16Z" fill="black"/>
<path d="M111.91 16H130.105V22.6016H119.518V23.9219H130.105V39.1055H111.91V32.1738H122.496V30.8535H111.91V16Z" fill="black"/>
<path d="M118.447 119.521L116.703 138.961L99.9481 143.473V159.067L130.746 150.551L130.971 148.019L134.502 108.558L134.868 104.533L137.58 74.1944H99.9481V89.1836H121.117L119.75 104.533H99.9481V119.521H118.447Z" fill="white"/>
</g>
<defs>
<clipPath id="clip0_16_58">
<rect width="120" height="169" fill="white" transform="translate(40 16)"/>
</clipPath>
</defs>
</svg>
