<svg width="200" height="227" viewBox="0 0 200 227" fill="none" xmlns="http://www.w3.org/2000/svg">
<path d="M200 0L181.78 203.658L99.8776 226.313L18.2012 203.69L0 0H200Z" fill="#264DE4"/>
<path d="M166.181 190.689L181.751 16.6547H100V208.996L166.181 190.689Z" fill="#2965F1"/>
<path d="M41.7258 92.2001L43.9699 117.181H99.9999V92.2001H41.7258Z" fill="#EBEBEB"/>
<path d="M100 41.6366H99.9134H37.2168L39.4928 66.6186H100V41.6366Z" fill="#EBEBEB"/>
<path d="M100 183.072V157.08L99.8903 157.109L72.0054 149.597L70.2229 129.673H56.673H45.0887L48.5965 168.898L99.8848 183.104L100 183.072Z" fill="#EBEBEB"/>
<path d="M130.745 117.182L127.838 149.581L99.9133 157.101V183.092L151.242 168.898L151.619 164.677L157.503 98.9085L158.114 92.2002L162.634 41.6366H99.9133V66.6186H135.194L132.916 92.2002H99.9133V117.182H130.745Z" fill="white"/>
</svg>
