<svg width="200" height="200" viewBox="0 0 200 200" fill="none" xmlns="http://www.w3.org/2000/svg">
<circle cx="100" cy="100" r="100" fill="#DDDDDD"/>
<g clip-path="url(#clip0_16_41)">
<path d="M52.7219 18H60.0891V25.3031H66.8797V18H74.2469V40.1016H66.8797V32.7344H60.1531V40.1016H52.7219M83.9844 25.3672H77.482V18H97.8859V25.3672H91.3516V40.1016H83.9844M101.121 18H108.841L113.581 25.7836L118.322 18H126.041V40.1016H118.674V29.1469L113.517 37.0906L108.36 29.1469V40.1016H101.121M129.693 18H137.06V32.7984H147.502V40.1016H129.693" fill="black"/>
<path d="M52.4656 168.867L41.8953 50.2234H158.105L147.534 168.803L99.9039 182" fill="#E44D26"/>
<path d="M100 171.91V59.9609H147.502L138.438 161.18" fill="#F16529"/>
<path d="M63.4844 74.4711H100V89.0133H79.4359L80.7812 103.908H100V118.418H67.4562M68.0969 125.721H82.7031L83.7281 137.348L100 141.705V156.887L70.1469 148.559" fill="#EBEBEB"/>
<path d="M136.388 74.4711H99.9359V89.0133H135.042M133.729 103.908H99.9359V118.45H117.873L116.176 137.348L99.9359 141.705V156.823L129.725 148.559" fill="white"/>
</g>
<defs>
<clipPath id="clip0_16_41">
<rect width="164" height="164" fill="white" transform="translate(18 18)"/>
</clipPath>
</defs>
</svg>
