<svg width="200" height="200" viewBox="0 0 200 200" fill="none" xmlns="http://www.w3.org/2000/svg">
<circle cx="100" cy="100" r="100" fill="black"/>
<g clip-path="url(#clip0_16_43)">
<path d="M168 32H31V169H168V32Z" fill="#F7DF1E"/>
<path d="M123.029 139.032C125.789 143.538 129.379 146.85 135.729 146.85C141.063 146.85 144.471 144.183 144.471 140.5C144.471 136.085 140.97 134.522 135.098 131.953L131.88 130.573C122.59 126.615 116.418 121.657 116.418 111.175C116.418 101.52 123.775 94.1697 135.272 94.1697C143.457 94.1697 149.342 97.0185 153.582 104.477L143.557 110.914C141.35 106.956 138.969 105.397 135.272 105.397C131.501 105.397 129.112 107.789 129.112 110.914C129.112 114.776 131.504 116.34 137.027 118.732L140.246 120.111C151.184 124.801 157.36 129.583 157.36 140.334C157.36 151.925 148.255 158.275 136.027 158.275C124.071 158.275 116.347 152.577 112.567 145.11L123.029 139.032ZM77.5517 140.147C79.5741 143.735 81.4138 146.769 85.837 146.769C90.0666 146.769 92.7348 145.114 92.7348 138.68V94.9047H105.608V138.853C105.608 152.184 97.7929 158.251 86.385 158.251C76.0774 158.251 70.1081 152.917 67.0723 146.492L77.5517 140.147Z" fill="black"/>
</g>
<defs>
<clipPath id="clip0_16_43">
<rect width="137" height="137" fill="white" transform="translate(31 32)"/>
</clipPath>
</defs>
</svg>
